<svg width="34" height="35" viewBox="0 0 34 35" fill="none" xmlns="http://www.w3.org/2000/svg">
<path d="M18.3858 1.87578C17.774 1.39442 17.468 1.15374 17.1302 1.06122C16.8321 0.979592 16.5179 0.979592 16.2198 1.06122C15.882 1.15374 15.576 1.39442 14.9642 1.87578L3.15164 11.1684C2.36202 11.7895 1.96721 12.1001 1.68278 12.4891C1.43083 12.8336 1.24314 13.2218 1.12893 13.6344C1 14.1003 1 14.6062 1 15.618V28.3629C1 30.3361 1 31.3227 1.37966 32.0763C1.71362 32.7392 2.2465 33.2782 2.90193 33.616C3.64706 34 4.62248 34 6.57333 34H10.0567C10.5444 34 10.7882 34 10.9745 33.904C11.1384 33.8196 11.2716 33.6848 11.3551 33.5191C11.45 33.3307 11.45 33.084 11.45 32.5907V20.9643C11.45 19.9777 11.45 19.4844 11.6398 19.1076C11.8068 18.7761 12.0733 18.5066 12.401 18.3377C12.7735 18.1457 13.2612 18.1457 14.2367 18.1457H19.1133C20.0888 18.1457 20.5765 18.1457 20.949 18.3377C21.2767 18.5066 21.5432 18.7761 21.7102 19.1076C21.9 19.4844 21.9 19.9777 21.9 20.9643V32.5907C21.9 33.084 21.9 33.3307 21.9949 33.5191C22.0784 33.6848 22.2116 33.8196 22.3755 33.904C22.5618 34 22.8056 34 23.2933 34H26.7767C28.7275 34 29.7029 34 30.4481 33.616C31.1035 33.2782 31.6364 32.7392 31.9703 32.0763C32.35 31.3227 32.35 30.3361 32.35 28.3629V15.618C32.35 14.6062 32.35 14.1003 32.2211 13.6344C32.1069 13.2218 31.9192 12.8336 31.6672 12.4891C31.3828 12.1001 30.988 11.7895 30.1984 11.1684L18.3858 1.87578Z" fill="black" stroke="black" stroke-width="2" stroke-linecap="round" stroke-linejoin="round"/>
</svg>
