<svg width="34" height="30" viewBox="0 0 34 30" fill="none" xmlns="http://www.w3.org/2000/svg">
<path fill-rule="evenodd" clip-rule="evenodd" d="M10.6626 3.56885C6.68205 3.56885 3.44385 6.81141 3.44385 10.8253C3.44385 12.015 4.05205 13.4396 5.08949 14.9594C6.10279 16.4439 7.39134 17.8274 8.4666 18.9073L15.0294 25.4984C16.0357 26.509 17.6645 26.509 18.6708 25.4984L25.2336 18.9073C26.2892 17.8472 27.5785 16.463 28.597 14.9729C29.6412 13.4452 30.2563 12.0124 30.2563 10.8253C30.2563 6.81141 27.0181 3.56885 23.0376 3.56885C21.0504 3.56885 19.2522 4.37403 17.9444 5.68299C17.6542 5.97337 17.2606 6.13653 16.8501 6.13653C16.4396 6.13653 16.046 5.97337 15.7558 5.68299C14.448 4.37403 12.6498 3.56885 10.6626 3.56885ZM0.350098 10.8253C0.350098 5.11532 4.96091 0.475098 10.6626 0.475098C12.9842 0.475098 15.1275 1.24636 16.8501 2.54456C18.5727 1.24636 20.716 0.475098 23.0376 0.475098C28.7393 0.475098 33.3501 5.11532 33.3501 10.8253C33.3501 12.9578 32.3053 15.0302 31.1511 16.7187C29.9714 18.4447 28.5239 19.9875 27.4259 21.0902L20.8631 27.6813C18.6475 29.9064 15.0527 29.9064 12.8371 27.6813L6.2743 21.0902C5.15804 19.9692 3.70985 18.4258 2.53429 16.7036C1.38287 15.0168 0.350098 12.9552 0.350098 10.8253Z" fill="#6A6A6A"/>
</svg>
