<svg xmlns="http://www.w3.org/2000/svg" width="27" height="27" viewBox="0 0 27 27" fill="none">
<path fill-rule="evenodd" clip-rule="evenodd" d="M21.2085 0.993669C22.5334 -0.331224 24.6814 -0.331223 26.0063 0.99367C27.3312 2.31856 27.3312 4.46664 26.0063 5.79153L17.6646 14.1333C16.6647 15.1332 15.4181 15.8508 14.0512 16.2132L11.715 16.8327C11.2782 16.9485 10.8128 16.8227 10.4939 16.5025C10.175 16.1824 10.051 15.7165 10.1686 15.2801L10.8086 12.9045C11.1737 11.5495 11.8881 10.3141 12.8804 9.32178L21.2085 0.993669ZM24.2165 2.78353C23.8801 2.44716 23.3347 2.44716 22.9983 2.78353L14.6702 11.1116C13.9913 11.7906 13.5025 12.6359 13.2527 13.563L13.1821 13.8249L13.4024 13.7665C14.3376 13.5185 15.1906 13.0276 15.8747 12.3434L24.2165 4.00167C24.5528 3.66529 24.5528 3.11991 24.2165 2.78353ZM4.64062 7.59375C3.47565 7.59375 2.53125 8.53815 2.53125 9.70312V22.3594C2.53125 23.5243 3.47565 24.4688 4.64063 24.4688H17.2969C18.4619 24.4688 19.4062 23.5244 19.4062 22.3594V16.0312C19.4062 15.3323 19.9729 14.7656 20.6719 14.7656C21.3709 14.7656 21.9375 15.3323 21.9375 16.0312V22.3594C21.9375 24.9223 19.8598 27 17.2969 27H4.64063C2.07768 27 0 24.9223 0 22.3594V9.70312C0 7.14018 2.07768 5.0625 4.64062 5.0625H10.9688C11.6677 5.0625 12.2344 5.62914 12.2344 6.32812C12.2344 7.02711 11.6677 7.59375 10.9688 7.59375H4.64062Z" fill="white"/>
</svg>