<svg width="34" height="33" viewBox="0 0 34 33" fill="none" xmlns="http://www.w3.org/2000/svg">
<path fill-rule="evenodd" clip-rule="evenodd" d="M14.6067 2.67794C15.8026 2.85433 16.9242 3.2588 17.9259 3.84574C18.6544 3.37017 19.5246 3.09375 20.4595 3.09375H21.4907C24.0537 3.09375 26.1313 5.17143 26.1313 7.73438V8.76562C26.1313 10.9772 24.5843 12.8274 22.5134 13.2932C22.4477 14.8327 22.007 16.275 21.2803 17.5312H22.3501C26.7166 17.5312 30.2563 21.071 30.2563 25.4375C30.2563 25.6273 30.1024 25.7812 29.9126 25.7812H26.0672C26.3779 26.7656 26.5705 27.8024 26.6285 28.875H29.9126C31.8111 28.875 33.3501 27.336 33.3501 25.4375C33.3501 20.6392 30.2779 16.5585 25.9932 15.0551C27.9501 13.6517 29.2251 11.3575 29.2251 8.76562V7.73438C29.2251 3.4628 25.7623 0 21.4907 0H20.4595C18.121 0 16.0249 1.03779 14.6067 2.67794ZM12.2095 4.125C7.9379 4.125 4.4751 7.5878 4.4751 11.8594V12.8906C4.4751 15.4825 5.75005 17.7767 7.70702 19.1801C3.42233 20.6835 0.350098 24.7642 0.350098 29.5625C0.350098 31.461 1.88912 33 3.7876 33H21.6626C23.5611 33 25.1001 31.461 25.1001 29.5625C25.1001 24.7642 22.0279 20.6835 17.7432 19.1801C19.7001 17.7767 20.9751 15.4825 20.9751 12.8906V11.8594C20.9751 7.5878 17.5123 4.125 13.2407 4.125H12.2095ZM7.56885 11.8594C7.56885 9.29643 9.64653 7.21875 12.2095 7.21875H13.2407C15.8037 7.21875 17.8813 9.29643 17.8813 11.8594V12.8906C17.8813 15.4536 15.8037 17.5312 13.2407 17.5312H12.2095C9.64653 17.5312 7.56885 15.4536 7.56885 12.8906V11.8594ZM3.44385 29.5625C3.44385 25.196 6.9836 21.6562 11.3501 21.6562H14.1001C18.4666 21.6562 22.0063 25.196 22.0063 29.5625C22.0063 29.7523 21.8524 29.9062 21.6626 29.9062H3.7876C3.59775 29.9062 3.44385 29.7523 3.44385 29.5625Z" fill="#6A6A6A"/>
</svg>
