<svg xmlns="http://www.w3.org/2000/svg" width="132" height="132" viewBox="0 0 132 132" fill="none">
<path d="M103.156 103.234H117.802C118.835 103.234 119.672 102.397 119.672 101.365C119.672 83.6886 105.343 69.3594 87.6667 69.3594H84.2591C86.8849 64.5693 88.4947 59.1431 88.7989 53.3716C97.0871 51.3304 103.234 43.8485 103.234 34.9297V30.8203C103.234 20.3312 94.7313 11.8281 84.2422 11.8281H80.1328C76.4184 11.8281 72.9516 12.8949 70.024 14.739C66.3017 12.5989 62.1769 11.0794 57.7913 10.3219C63.3342 4.28376 71.2914 0.5 80.1328 0.5H84.2422C100.988 0.5 114.563 14.0749 114.563 30.8203V34.9297C114.563 45.0902 109.565 54.0835 101.892 59.586C101.741 59.6947 101.662 59.8787 101.689 60.0633C101.715 60.2479 101.842 60.4024 102.018 60.4641C118.898 66.3868 131 82.4631 131 101.365C131 108.654 125.091 114.562 117.802 114.562H105.187C104.939 110.649 104.245 106.856 103.156 103.234ZM29.4818 76.9016C29.6577 76.8399 29.7847 76.6854 29.8112 76.5008C29.8376 76.3162 29.7592 76.1322 29.6076 76.0235C21.9347 70.521 16.9375 61.5277 16.9375 51.3672V47.2578C16.9375 30.5124 30.5124 16.9375 47.2578 16.9375H51.3672C68.1126 16.9375 81.6875 30.5124 81.6875 47.2578V51.3672C81.6875 61.5277 76.6903 70.521 69.0174 76.0235C68.8658 76.1322 68.7874 76.3162 68.8138 76.5008C68.8403 76.6854 68.9673 76.8399 69.1432 76.9016C86.023 82.8243 98.125 98.9006 98.125 117.802C98.125 125.091 92.2161 131 84.9271 131H13.6979C6.40891 131 0.5 125.091 0.5 117.802C0.5 98.9006 12.602 82.8243 29.4818 76.9016ZM47.2578 28.2656C36.7687 28.2656 28.2656 36.7687 28.2656 47.2578V51.3672C28.2656 61.8563 36.7687 70.3594 47.2578 70.3594H51.3672C61.8563 70.3594 70.3594 61.8563 70.3594 51.3672V47.2578C70.3594 36.7687 61.8563 28.2656 51.3672 28.2656H47.2578ZM43.8333 85.7969C26.1573 85.7969 11.8281 100.126 11.8281 117.802C11.8281 118.835 12.6653 119.672 13.6979 119.672H84.9271C85.9597 119.672 86.7969 118.835 86.7969 117.802C86.7969 100.126 72.4677 85.7969 54.7917 85.7969H43.8333Z" fill="#E3E3E3" stroke="#F9FAFD" stroke-linecap="round" stroke-linejoin="round"/>
</svg>
