<svg xmlns="http://www.w3.org/2000/svg" width="35" height="35" viewBox="0 0 35 35" fill="none">
<path fill-rule="evenodd" clip-rule="evenodd" d="M22.988 2.06094C25.7359 -0.686981 30.1911 -0.686979 32.9391 2.06094C35.687 4.80886 35.687 9.26412 32.9391 12.012L15.6377 29.3134C13.5638 31.3873 10.9782 32.8756 8.1433 33.6274L3.29788 34.9122C2.39195 35.1525 1.42666 34.8915 0.765234 34.2274C0.103814 33.5634 -0.15338 32.5971 0.0904351 31.6921L1.41789 26.7649C2.17505 23.9545 3.65676 21.3921 5.71486 19.334L22.988 2.06094ZM29.2268 5.77325C28.5291 5.07557 27.3979 5.07557 26.7003 5.77324L9.42716 23.0463C8.01899 24.4545 7.00519 26.2077 6.48713 28.1306L6.34076 28.6739L6.79764 28.5528C8.73733 28.0384 10.5064 27.0201 11.9254 25.6011L29.2268 8.29974C29.9244 7.60207 29.9244 6.47092 29.2268 5.77325Z" fill="white"/>
</svg>