<svg width="30" height="33" viewBox="0 0 30 33" fill="current" xmlns="http://www.w3.org/2000/svg">
<path fill-rule="evenodd" clip-rule="evenodd" d="M5.26081 8.72437C5.26081 3.86846 9.28934 0 14.1738 0H15.4014C20.2859 0 24.3144 3.86846 24.3144 8.72437V9.92062C24.3144 13.0398 22.6522 15.7516 20.1686 17.2923C25.393 18.8536 29.2251 23.5973 29.2251 29.26C29.2251 31.3631 27.4868 33 25.4275 33H4.14772C2.08841 33 0.350098 31.3631 0.350098 29.26C0.350098 23.5973 4.18217 18.8536 9.40658 17.2923C6.92302 15.7516 5.26081 13.0398 5.26081 9.92062V8.72437ZM14.1738 3.09375C10.9218 3.09375 8.35456 5.65224 8.35456 8.72437V9.92062C8.35456 12.9928 10.9218 15.5512 14.1738 15.5512H15.4014C18.6534 15.5512 21.2206 12.9928 21.2206 9.92062V8.72437C21.2206 5.65224 18.6534 3.09375 15.4014 3.09375H14.1738ZM13.1507 19.8412C7.75169 19.8412 3.44385 24.0957 3.44385 29.26C3.44385 29.5793 3.72092 29.9062 4.14772 29.9062H25.4275C25.8543 29.9062 26.1313 29.5793 26.1313 29.26C26.1313 24.0957 21.8235 19.8412 16.4245 19.8412H13.1507Z" fill="current"/>
</svg>
